<svg aria-hidden="true" style="width:0;height:0;position:absolute;overflow:hidden" xmlns="http://www.w3.org/2000/svg"><defs><symbol id="icon-close-black" viewBox="0 0 128 128"><path d="m72.352 64 49.131-49.131a5.931 5.931 0 0 0-8.371-8.345l.008-.007L64 55.648 14.869 6.464a5.952 5.952 0 1 0-8.42 8.401l.004.004L55.637 64 6.464 113.12a5.931 5.931 0 1 0 8.345 8.372l.007-.008 49.173-49.131 49.131 49.131a5.931 5.931 0 0 0 8.357-8.37l.007.008-49.131-49.12z"/></symbol><symbol id="icon-menu" viewBox="0 0 128 128"><path stroke-linecap="round" stroke-width="8" d="M24 40h80M24 64h80M24 88h80"/></symbol><symbol id="icon-close-white" viewBox="0 0 128 128"><path fill="#fcfcfc" style="fill:var(--color2,#fcfcfc)" d="M95.536 26.824 64 58.36 32.464 26.824a3.992 3.992 0 0 0-5.637 5.643l-.003-.003L58.344 64 26.816 95.528a3.991 3.991 0 0 0 5.64 5.648L64 69.648l31.536 31.536a3.992 3.992 0 0 0 5.637-5.643l.003.003L69.64 64.008l31.536-31.544a3.991 3.991 0 0 0-5.64-5.648v.008z"/></symbol><symbol id="icon-arrow-default" viewBox="0 0 328 128"><path d="M325.656 69.656c1.447-1.448 2.342-3.447 2.342-5.656s-.895-4.208-2.342-5.656L274.744 7.432a8 8 0 1 0-11.314 11.31l.002.002L308.688 64l-45.256 45.256a8 8 0 0 0 11.314 11.31l-.002.002 50.912-50.912zM0 72h320V56H0v16z"/></symbol><symbol id="icon-arrow-focus" viewBox="0 0 277 128"><path d="M272.32 69.653c1.446-1.447 2.34-3.446 2.34-5.653s-.894-4.206-2.34-5.653L221.414 7.43a8.003 8.003 0 1 0-11.318 11.318l45.264 45.253-45.259 45.253a8.003 8.003 0 1 0 11.318 11.318l50.912-50.912zM0 72h266.667V56H0v16z"/></symbol><symbol id="icon-arrow-hover" viewBox="0 0 408 128"><path d="M405.656 69.656c1.447-1.448 2.342-3.447 2.342-5.656s-.895-4.208-2.342-5.656L354.744 7.432a8 8 0 1 0-11.314 11.31l.002.002L388.688 64l-45.256 45.256a8 8 0 0 0 11.314 11.31l-.002.002 50.912-50.912zM0 72h400V56H0v16z"/></symbol><symbol id="icon-Logo" viewBox="0 0 118 128"><path fill="#f8d24e" style="fill:var(--color3,#f8d24e)" d="M60.905 68.329c5.659-15.138-6.059-23.424-13.827-28.87-1.485-1.113-2.97-2.152-4.173-3.103-2.15-1.788-3.734-4.148-4.563-6.797s-.869-5.478-.115-8.15a1.565 1.565 0 0 0-.46-1.579 1.625 1.625 0 0 0-1.634-.324 26.288 26.288 0 0 0-7.203 4.231c-2.071 1.574-3.748 3.594-4.904 5.905s-1.759 4.854-1.764 7.431a19.756 19.756 0 0 0-3.847 3.967 14.412 14.412 0 0 0-2.837 9.296c-2.379 2.154-4.151 4.879-5.143 7.909s-1.17 6.262-.516 9.38c-.946.564-1.679 1.418-2.085 2.432s-.464 2.131-.163 3.18c.3 1.049.942 1.972 1.825 2.627s1.961 1.006 3.067.999h.104v8.608c0 .874.352 1.712.979 2.329s1.477.965 2.363.965h2.599l4.233 36.16c.088.805.475 1.549 1.086 2.09s1.404.839 2.226.838h17.614c.822-.002 1.615-.301 2.228-.841s1.004-1.282 1.099-2.087l4.233-36.16h2.599c.886 0 1.736-.347 2.363-.965s.979-1.456.979-2.329v-8.608h.104c1.343 0 2.631-.526 3.581-1.462s1.483-2.206 1.483-3.53c.007-.661-.121-1.316-.376-1.927s-.632-1.165-1.109-1.63l-.044.015zM22.781 40.865c2.139 7.92 10.396 11.038 17.926 13.82a1.64 1.64 0 0 0 1.969-.207 1.58 1.58 0 0 0-.177-2.448 1.625 1.625 0 0 0-.648-.272c-8.109-3.03-15.758-5.856-16.337-13.952-.136-2.225.288-4.449 1.234-6.475s2.384-3.789 4.187-5.135a24.16 24.16 0 0 1 3.624-2.459 18.65 18.65 0 0 0 0 3.045c.172 2.32.815 4.582 1.892 6.652s2.565 3.905 4.375 5.397c1.233 1.039 2.762 2.108 4.456 3.25 3.906 2.767 8.347 5.856 11.169 10.043 1.506 2.147 2.442 4.632 2.725 7.227s-.098 5.219-1.106 7.632h-6.564c-13.53 0-29.08-3.689-32.154-14.025-.61-2.126-.605-4.378.014-6.502s1.828-4.035 3.491-5.517l-.074-.073zm12.178 49.907 4.961 4.89-4.961 4.89-4.96-4.919 4.96-4.861zm11.377 12.839-4.099 4.041-4.961-4.89 4.96-4.875 4.307 4.231-.208 1.493zm-11.377 11.214-4.96-4.89 4.96-4.89 4.961 4.89-4.961 4.89zm-2.272-12.034-4.96 4.89-4.129-4.07-.178-1.464 4.307-4.231 4.96 4.875zm-7.248 7.144-.995.981-.253-2.225 1.248 1.244zm-.52 5.007 2.807-2.767 5.451 5.417c.028.109.063.217.104.322h-8.02l-.341-2.972zm17.288-2.767 2.807 2.767-.342 2.928h-8.243l5.777-5.695zm3.267-1.259-.995-.981 1.263-1.244-.267 2.225zm1.485-12.795-2.48-2.489 3.149-3.104-.668 5.592zm-4.767-4.714-4.708-4.626H46.9l-4.708 4.626zm-14.48 0-4.708-4.626h9.416l-4.708 4.626zm16.04 31.27H26.153c-.027-.003-.051-.015-.07-.034s-.031-.043-.034-.069l-.416-3.513h18.654l-.401 3.513c-.004.028-.018.055-.04.073s-.05.029-.079.029h-.015zm13.619-51.005h-5.169a1.652 1.652 0 0 0-.666.074 1.608 1.608 0 0 0-1.109 1.514 1.594 1.594 0 0 0 .531 1.181 1.633 1.633 0 0 0 1.244.407h1.841v8.608c-.004.028-.017.055-.04.073s-.05.029-.079.029H15.948a.12.12 0 0 1-.119-.102v-8.608h29.422c.401-.038.773-.222 1.043-.516s.421-.676.421-1.073-.15-.779-.421-1.073a1.626 1.626 0 0 0-1.043-.516H12.577a1.854 1.854 0 0 1-1.851-1.076 1.796 1.796 0 0 1 .443-2.072 1.86 1.86 0 0 1 1.408-.468h3.371c.401-.038.773-.222 1.043-.515s.421-.676.421-1.073-.15-.779-.421-1.073a1.627 1.627 0 0 0-1.043-.515h-2.97c-.425-2.228-.356-4.519.203-6.718s1.594-4.252 3.035-6.019c1.04 3.191 3.713 7.554 10.396 11.024 6.282 3.235 14.599 4.89 24.714 4.89h5.941a1.854 1.854 0 0 1 1.851 1.076 1.796 1.796 0 0 1-.443 2.072 1.86 1.86 0 0 1-1.408.468h.104z"/><path fill="#f8d24e" style="fill:var(--color3,#f8d24e)" d="m67.857 116.607-1.17 1.795.023.015 1.147-1.81zm12.595.607 2.142-.047-.055-2.48-2.445.415.358 2.112zm.147 6.59.545 2.072 1.634-.43-.038-1.689-2.142.047zm-16.529.314.481-2.088-.013-.003-.468 2.091zm-8.16-3.64 1.386-1.634-.003-.003-1.383 1.636zm-2.95-6.696 2.142.011v-.011H52.96zm1.025-4.686-1.922-.946-.001.003 1.924.943zm6.57-5.608.76 2.003.008-.003-.768-2zm21.048-.543 2.136.166.141-1.809-1.761-.437-.516 2.079zm-.523 6.716-.399 2.105 2.35.445.186-2.384-2.136-.166zm-5.712-2.749c-3.215 0-5.918.343-7.892 1.212-1.012.445-1.932 1.071-2.603 1.955-.691.912-1.021 1.974-1.021 3.097h4.285c0-.251.061-.39.151-.509.111-.146.362-.379.912-.621 1.15-.506 3.134-.849 6.168-.849v-4.285zm-11.516 6.264c0 2.205.988 4.023 2.835 5.226l2.34-3.59c-.636-.415-.889-.884-.889-1.636h-4.285zm2.858 5.241c1.751 1.109 4.059 1.525 6.649 1.525v-4.285c-2.236 0-3.596-.379-4.356-.86l-2.293 3.62zm6.649 1.525a44.5 44.5 0 0 0 7.451-.616l-.717-4.225c-2.178.37-4.423.555-6.734.555v4.285zm4.951-2.681.147 6.591 4.284-.095-.147-6.591-4.284.095zm1.743 4.472c-2.45.644-5.151.975-8.117.975v4.285c3.283 0 6.356-.367 9.207-1.117l-1.091-4.144zm-8.116.975c-3.026 0-5.476-.238-7.386-.678l-.962 4.176c2.33.536 5.125.787 8.348.787v-4.285zm-7.4-.68c-2.045-.457-3.522-.944-4.507-1.424l-1.88 3.85c1.414.69 3.257 1.265 5.452 1.756l.935-4.182zm-4.507-1.425a13.067 13.067 0 0 1-2.734-1.759l-2.772 3.267a17.325 17.325 0 0 0 3.626 2.342l1.88-3.85zm-2.737-1.762c-1.456-1.23-2.202-2.838-2.19-5.048l-4.285-.022c-.017 3.369 1.204 6.225 3.71 8.343l2.766-3.273zm-2.191-5.059c0-1.44.283-2.675.807-3.744l-3.848-1.885c-.843 1.72-1.244 3.61-1.244 5.629h4.285zm.805-3.741c.975-1.982 2.696-3.521 5.407-4.549l-1.52-4.006c-3.537 1.342-6.196 3.542-7.732 6.665l3.845 1.891zm5.416-4.552c2.85-1.094 6.031-1.657 9.568-1.657v-4.285c-3.996 0-7.706.637-11.104 1.942l1.536 4zm9.568-1.657c3.606 0 7.003.4 10.197 1.192l1.031-4.159c-3.558-.882-7.302-1.318-11.228-1.318v4.285zm8.576-1.054-.523 6.716 4.272.333.523-6.716-4.272-.333zm2.012 4.778c-2.229-.422-4.271-.644-6.111-.644v4.285c1.507 0 3.274.183 5.313.569l.798-4.21zm20.904 3.423-.012 2.142 2.177.012-.023-2.177-2.142.023zm-.92-2.783-1.458 1.57.019.017 1.439-1.587zm-5.336.209 1.484 1.546.016-.016-1.5-1.53zm-1.297 2.532-2.114-.348-.407 2.476 2.509.014.012-2.142zm15.755 11.424 1.294 1.707.77-.584.072-.964-2.136-.16zm-4.624 1.715-.461-2.093-.013.003.473 2.09zm-16.069-.585-.731 2.014.017.006.713-2.02zm-3.661-1.946-1.33 1.68.013.01.013.01 1.304-1.7zm-2.448-3.076-1.921.95.004.008 1.916-.958zm2.511-12.993 1.425 1.6.001-.001-1.426-1.599zm19.583-2.322.857-1.964-.02-.008-.837 1.972zm4.917 4.519-1.927.937.006.012 1.921-.949zm.837 3.745 2.137.155.006-.078v-.078h-2.142zm-.251 3.452-.011 2.142 2.002.01.145-1.997-2.137-.156zm-16.968-.083.01-2.142-2.795-.014.713 2.703 2.072-.546zm2.427 2.992-1.054 1.865.009.005 1.046-1.87zm13.014-.733v-2.142h-.428l-.395.165.823 1.978zm1.13 0 2.137.16.172-2.302h-2.309v2.142zm-6.457-6.09c-.016-1.55-.373-3.212-1.624-4.347l-2.879 3.174c-.025-.023.024.004.085.19.065.196.127.524.132 1.029l4.285-.046zm-1.605-4.33c-1.124-1.044-2.6-1.388-4.052-1.388v4.285c.835 0 1.089.2 1.136.244l2.916-3.14zm-4.053-1.388c-1.596 0-3.079.5-4.24 1.637l2.999 3.06c.234-.229.577-.413 1.241-.413v-4.285zm-4.224 1.622c-1.055 1.013-1.691 2.287-1.928 3.73l4.228.695c.098-.594.327-1.007.667-1.334l-2.967-3.091zm.174 6.219 7.553.042.024-4.285-7.553-.042-.024 4.285zm14.473 7.574c-.47.356-1.615.852-3.79 1.331l.921 4.185c2.26-.498 4.198-1.145 5.457-2.101l-2.588-3.415zm-3.803 1.334c-2.076.47-4.072.701-5.992.701v4.285c2.265 0 4.579-.272 6.938-.806l-.946-4.179zm-5.992.7c-2.019 0-3.682-.095-5.008-.274l-.572 4.247c1.575.212 3.441.312 5.579.312v-4.285zm-5.008-.274a19.409 19.409 0 0 1-3.883-.943l-1.426 4.041c1.557.55 3.137.934 4.737 1.149l.572-4.247zm-3.865-.936c-1.253-.454-2.272-1.005-3.088-1.632l-2.608 3.4c1.22.936 2.642 1.682 4.235 2.26l1.461-4.028zm-3.062-1.612c-.736-.582-1.361-1.352-1.862-2.354l-3.832 1.916c.754 1.509 1.761 2.789 3.034 3.797l2.66-3.36zm-1.857-2.346c-.451-.911-.719-2.085-.719-3.591H80.7c0 2.009.359 3.863 1.163 5.49l3.841-1.9zm-.72-3.59c0-1.507.272-2.838.785-4.022l-3.931-1.706c-.769 1.773-1.139 3.692-1.139 5.728h4.285zm.785-4.022c.54-1.245 1.202-2.165 1.949-2.831l-2.85-3.2c-1.289 1.148-2.287 2.613-3.031 4.325l3.931 1.706zm1.951-2.832c2.303-2.053 5.815-3.244 10.877-3.244v-4.285c-5.679 0-10.368 1.334-13.728 4.33l2.852 3.198zm10.876-3.243c2.271 0 4.413.433 6.445 1.294l1.674-3.945a20.596 20.596 0 0 0-8.118-1.635v4.285zm6.424 1.285c1.896.828 3.121 2 3.847 3.492l3.854-1.873c-1.227-2.525-3.28-4.365-5.987-5.546l-1.714 3.927zm3.853 3.505c.4.81.615 1.73.615 2.797h4.285c0-1.668-.343-3.245-1.058-4.694l-3.842 1.897zm.621 2.641-.251 3.452 4.274.311.251-3.452-4.274-.311zm1.897 1.465-16.969-.084-.021 4.285 16.968.084.021-4.285zm-19.051 2.605c.501 1.899 1.726 3.339 3.444 4.311l2.109-3.731c-.848-.479-1.241-1.034-1.41-1.673l-4.143 1.093zm3.453 4.316c1.738.972 3.911 1.361 6.339 1.361v-4.285c-2.035 0-3.391-.337-4.248-.816l-2.091 3.74zm6.339 1.36c2.606 0 5.468-.704 8.544-1.985l-1.647-3.956c-2.754 1.147-5.04 1.656-6.897 1.656v4.285zm7.721-1.82h1.13v-4.285h-1.13v4.285zm-1.007-2.302-.398 5.314 4.273.32.398-5.314-4.273-.32z"/></symbol><symbol id="icon-telegram" viewBox="0 0 32 32"><path fill="#f8d24e" style="fill:var(--color1,#f8d24e)" d="M32 16c0 8.837-7.163 16-16 16S0 24.837 0 16 7.163 0 16 0s16 7.163 16 16z"/><path d="m12.869 18.375-.318 4.169c.454 0 .651-.182.887-.401l2.13-1.9 4.415 3.017c.81.421 1.38.199 1.598-.695l2.898-12.672.001-.001c.257-1.117-.433-1.554-1.222-1.28L6.226 14.698c-1.162.421-1.145 1.026-.198 1.3l4.354 1.264 10.115-5.907c.476-.294.909-.131.553.163l-8.182 6.857z"/></symbol><symbol id="icon-weight" viewBox="0 0 103 128"><path d="M42.489 2.187C26.588 4.544 13.501 13.373 8.683 24.928c-1.536 3.651-1.949 5.895-1.949 10.293.029 3.25.146 4.455.651 6.208 1.031 3.449 1.771 5.205 3.307 7.68l1.422 2.297-1.6 1.956C-2.101 69.06-3.491 91.14 7.029 108.534c3.929 6.528 10.343 12.939 16.605 16.675l1.863 1.091 50.972-.43 1.209-.661c4.228-2.386 10.194-7.705 13.532-12.018 4.834-6.278 8.255-13.888 9.651-22.186l.041-.296c.473-2.962.473-11.733-.028-14.521-1.507-8.594-4.729-15.954-9.81-22.482-.974-1.237-1.742-2.272-1.742-2.357 0-.057.533-.949 1.152-1.956 1.447-2.3 2.748-5.262 3.456-7.847.796-2.877.796-10.062 0-12.939C91.093 18.403 82.584 9.891 70.559 5.204c-3.371-1.323-9.134-2.731-12.857-3.189-3.456-.402-11.996-.32-15.218.171zM60.48 6.873c15.78 3.075 27.335 12.736 29.461 24.64.473 2.674.178 7.218-.619 9.746-.8 2.471-2.275 5.376-4.018 7.847-.711 1.006-1.301 2.158-1.301 2.532s.619 1.351 1.507 2.329c7.385 8.192 11.285 18.457 11.285 29.554-.028 12.622-4.875 23.691-14.212 32.373-1.597 1.493-3.872 3.364-5.085 4.167l-2.215 1.493-48.843.203-1.892-1.209c-6.855-4.451-13.031-11.811-16.459-19.634-4.313-9.888-4.757-21.362-1.241-31.651 1.863-5.347 4.345-9.717 8.124-14.318 1.54-1.842 2.247-2.933 2.247-3.449 0-.434-.768-1.842-1.774-3.307-3.545-5.148-4.992-10.869-4.135-16.274.889-5.461 3.367-9.948 7.947-14.404 5.973-5.778 14.304-9.6 24.085-11.04 4.046-.604 12.999-.373 17.138.402z"/><path d="M43.815 11.932c-12.114 1.984-21.6 8.711-24.701 17.54-.711 1.984-.829 2.759-.829 5.607 0 2.844.117 3.62.828 5.603.441 1.266 1.269 3.022 1.831 3.911 1.536 2.471 2.215 2.56 5.262.718 4.376-2.696 9.472-4.758 14.907-5.898l.311-.054c3.662-.747 10.695-1.031 14.684-.572 6.233.718 12.999 2.958 18.407 6.151 1.536.889 3.104 1.636 3.484 1.636 2.247 0 5.113-6.468 5.113-11.495 0-11.186-10.695-20.761-25.852-23.147-3.221-.515-10.347-.515-13.447 0zm14.628 4.601c5.084 1.091 9.749 3.165 13.269 5.895 4.729 3.651 7.267 8.739 6.852 13.653-.146 1.956-.885 4.601-1.326 4.889-.121.057-1.778-.633-3.666-1.554-3.704-1.814-8.017-3.328-12.525-4.323l-.389-.072c-2.748-.572-3.901-.661-10.044-.633-6.059 0-7.328.089-9.956.633-4.551.978-8.099 2.187-12.473 4.256-4.402 2.098-4.167 2.126-4.963-.462-1.031-3.36-.384-7.819 1.625-11.182 1.067-1.781 3.989-4.743 6.116-6.208 4.05-2.791 7.595-4.053 15.218-5.436 1.565-.284 10.254.117 12.263.547zm-4.814 37.085c-.828 1.038-.828 2.016.029 2.848.562.547 1.123.69 3.164.836 4.137.299 7.933 1.52 11.26 3.459l-.124-.067c2.425 1.437 6.115 4.917 7.772 7.417 2.453 3.591 4.135 8.739 4.135 12.537 0 1.323.121 1.725.74 2.297.946.949 2.187.949 3.104 0 .651-.661.675-.832.501-3.648-.829-13.916-12.736-25.529-26.976-26.311l-2.958-.171-.647.807z"/></symbol><symbol id="icon-arrow" viewBox="0 0 90 128"><path stroke-linejoin="round" stroke-linecap="round" stroke-width="25.6" d="M12.8 12.8 76.16 64 12.8 115.2"/></symbol><symbol id="icon-arrow-large" viewBox="0 0 336 128"><path d="M333.344 68.768c1.45-1.448 2.346-3.449 2.346-5.66s-.897-4.212-2.346-5.66L282.432 6.536a8.002 8.002 0 1 0-11.312 11.32l45.256 45.248-45.256 45.256a8.002 8.002 0 1 0 11.312 11.32l50.912-50.912zM5.816 71.104H327.68v-16H5.816v16z"/></symbol><symbol id="icon-github" viewBox="0 0 32 32"><path fill="#f8d24e" style="fill:var(--color1,#f8d24e)" d="M32 16c0 8.837-7.163 16-16 16S0 24.837 0 16 7.163 0 16 0s16 7.163 16 16z"/><path d="M16 6.588c-5.169 0-9.412 4.242-9.412 9.412 0 4.411 3.095 8.419 7.206 9.412v-3.114a2.307 2.307 0 0 1-1.197-.03c-.556-.164-1.008-.535-1.344-1.1-.214-.361-.593-.752-.988-.723l-.097-1.099c.855-.073 1.595.521 2.034 1.259.195.328.419.52.708.605.278.082.578.043.926-.08.088-.698.407-.959.648-1.326v-.001c-2.451-.366-3.428-1.666-3.816-2.693-.514-1.363-.238-3.066.671-4.142.018-.021.05-.076.037-.114-.417-1.258.091-2.299.11-2.41.481.142.559-.143 2.089.786l.264.159c.111.066.076.028.186.02A8.031 8.031 0 0 1 16 11.131a8.016 8.016 0 0 1 2.002.285l.086.009c-.007-.001.023-.005.075-.036 1.911-1.157 1.842-.779 2.355-.946.019.111.519 1.169.107 2.411-.056.171 1.657 1.739.708 4.256-.388 1.027-1.365 2.328-3.816 2.693v.001c.314.479.692.734.69 1.722v3.887c4.111-.993 7.206-5 7.206-9.412 0-5.169-4.242-9.412-9.412-9.412z"/></symbol><symbol id="icon-cow" viewBox="0 0 128 128"><path d="M24.675.768c-1.049.903-4.032 7.125-5.102 10.524-1.273 4.206-1.707 7.36-1.536 11.719.231 6.222 1.796 10.944 5.241 15.872.899 1.294 1.625 2.404 1.625 2.496 0 .06-.551.121-1.244.121-2.987 0-8.576.992-12.861 2.283C3.996 45.831 0 49.404 0 53.404c0 1.415 1.273 3.819 2.635 5.049 2.635 2.379 8.398 4.633 14.595 5.714 2.144.391 8.515 1.052 9.934 1.081.259 0 .349 1.387.349 5.924 0 3.907.142 6.944.434 8.807 1.042 6.674 4.284 13.735 8.569 18.727l1.479 1.714-.985 1.593c-1.447 2.254-1.998 3.968-2.169 6.521-.437 6.133 3.385 11.573 10.773 15.392 14.069 7.303 35.936 4.448 44.132-5.771 3.996-4.992 4.459-10.702 1.301-15.872l-.985-1.593 1.767-2.133c3.303-3.968 5.444-7.936 7.065-12.957 1.362-4.267 1.885-8.388 1.885-14.912 0-2.972.085-5.44.231-5.44 1.333-.028 7.733-.722 9.76-1.081 6.226-1.081 11.876-3.307 14.596-5.71 1.362-1.234 2.635-3.637 2.635-5.049 0-4.452-4.516-8.057-12.917-10.222-2.749-.722-7.933-1.593-10.453-1.742l-1.188-.093 1.305-1.803c1.621-2.194 3.648-6.464 4.43-9.259 2.201-8.085.839-17.493-3.879-26.482-1.973-3.73-3.335-4.601-4.924-3.132-.608.576-.871 1.355-1.447 4.181-1.796 8.989-5.127 16.11-9.991 21.369l-2.144 2.347H40.98l-1.913-2.073c-4.747-5.23-8.195-12.622-9.991-21.643-.579-2.827-.839-3.605-1.447-4.178-.956-.871-1.884-.843-2.951.089zm3.702 17.828a48.05 48.05 0 0 0 5.703 9.437l1.795 2.315-1.881 1.412c-1.767 1.351-3.417 3.278-4.693 5.476l-.547.989-1.39-1.895c-4.75-6.549-5.938-14.578-3.417-22.905 1.216-4.025 1.188-3.997 2.286-.508.523 1.682 1.508 4.238 2.144 5.682zm75.378-6.344c1.049 2.913 1.655 6.275 1.655 9.778l-.002.371v-.019c0 5.468-1.447 10.098-4.487 14.247l-1.362 1.863-1.013-1.714a18.164 18.164 0 0 0-5.017-5.524l-.053-.036c-.782-.509-1.387-1.02-1.387-1.081 0-.089.547-.782 1.245-1.532 3.214-3.577 6.659-10.009 8.37-15.541.519-1.714 1.042-3.129 1.127-3.129.089 0 .523 1.056.924 2.318zM88.96 34.226c3.214 1.351 6.283 5.227 6.777 8.505.26 1.803.868 2.947 1.65 3.129.349.057 2.752.267 5.33.448 9.148.605 16.359 2.556 19.431 5.23 1.419 1.262 1.273 2.315-.434 3.609-3.417 2.585-10.802 4.537-18.332 4.871-4.981.21-6.023.355-6.692 1.049-.491.512-.547 1.053-.547 6.492 0 7.367-.377 11.605-1.305 15.029-1.301 4.658-3.879 9.621-6.891 13.138l-1.245 1.444-2.578-1.536c-2.749-1.704-5.941-3.04-9.341-3.833l-.216-.043c-10.976-2.617-23.111-1.024-31.275 4.117l-1.885 1.202-1.188-1.412c-1.621-1.895-4.171-5.952-5.184-8.235-2.229-5.173-2.894-9.379-2.894-18.638 0-8.989.462-8.327-6.197-8.686-8.515-.452-15.005-1.984-19.086-4.569-3.011-1.923-2.517-3.637 1.682-5.653 4.025-1.956 9.554-3.125 17.23-3.605 5.966-.391 6.108-.483 6.659-3.367.811-4.359 4.025-7.965 8.082-9.109 1.013-.299 6.688-.359 24.064-.331l22.734.06 1.65.693zM72.683 96.448c7.097 1.742 12.395 4.989 14.684 9.017.551.931.782 1.895.896 3.367.117 1.831.032 2.283-.665 3.787-3.214 6.827-15.029 11.332-27.047 10.311-14.45-1.202-23.95-9.259-20.213-17.163 2.027-4.27 8.889-8.356 16.128-9.561 1.188-.178 2.375-.391 2.606-.451.235-.061 2.841-.061 5.795 0 4.021.093 5.963.27 7.815.693z"/><path d="M43.961 49.283c-1.795.605-3.011 1.387-4.633 3.008-1.422 1.351-1.536 2.944-.349 3.907 1.102.9 2.144.782 3.474-.391 1.682-1.472 2.987-2.073 4.608-2.073 1.621-.032 2.866.541 4.601 2.073 1.333 1.173 2.375 1.291 3.477.391.58-.48.754-.871.754-1.778 0-.928-.203-1.351-1.22-2.371-2.866-2.883-7.122-3.996-10.713-2.766zm33.764-.031c-1.849.693-4.228 2.258-5.18 3.428-.928 1.145-.96 2.435 0 3.399.953 1.02 2.112.96 3.502-.181 3.417-2.827 5.966-2.916 9.124-.302.811.693 1.735 1.234 2.027 1.234 1.419 0 2.578-1.262 2.578-2.766 0-.96-2.403-3.186-4.576-4.238-2.403-1.173-5.269-1.383-7.47-.569zM48.16 104.896c-.839.811-1.131 1.984-.697 2.915.32.75.811 1.052 2.809 1.593.9.238 1.276.54 1.593 1.291.405.996.437.996 2.667 1.085l2.229.089v-.843c-.029-1.202-.697-2.944-1.565-4.146-1.013-1.387-2.781-2.286-4.779-2.468-1.362-.121-1.707-.061-2.258.484zm27.655-.213c-1.447.391-3.531 2.347-4.11 3.876a10.047 10.047 0 0 0-.549 2.707l-.002.031c-.057 1.291.057 1.593.754 2.222 1.707 1.504 3.968.331 3.968-2.073 0-1.173.868-1.984 2.403-2.286 1.621-.299 2.201-.96 2.229-2.493 0-2.016-1.796-2.795-4.693-1.984z"/></symbol><symbol id="icon-facebook" viewBox="0 0 32 32"><path fill="#f8d24e" style="fill:var(--color1,#f8d24e)" d="M16 32c8.837 0 16-7.163 16-16S24.837 0 16 0 0 7.163 0 16s7.163 16 16 16z"/><path d="M20.446 15.982h-2.61v9.619h-3.955v-9.619H12v-3.38h1.881v-2.187c0-1.564.739-4.014 3.99-4.014l2.929.012v3.281h-2.125c-.349 0-.839.175-.839.921v1.989h2.955l-.346 3.377z"/></symbol><symbol id="icon-ice-crema" viewBox="0 0 128 128"><path d="M64.434.427c.32.861.963 5.01.963 6.293v.043a12.29 12.29 0 0 1-3.352 8.454l.006-.006c-1.795 1.927-3.591 2.997-7.901 4.739-4.793 1.956-6.777 3.133-9.024 5.355-2.276 2.276-3.616 4.764-4.096 7.687-.537 3.186 0 5.433 1.632 6.72l.828.64-1.312.832c-2.649 1.742-7.467 5.838-8.299 7.097-1.607 2.411-1.447 4.658.373 5.572l.857.427-.964.91c-1.447 1.365-1.742 2.304-1.529 4.764.135 1.636.082 2.521-.291 3.858-.455 1.742-.455 1.767.132 3.001.59 1.205 2.251 2.731 3.751 3.374.722.32.747.427.91 2.891.082 1.422.213 5.945.32 10.069.082 4.124.27 7.9.427 8.356.135.48.644 1.124 1.102 1.444 1.55 1.074 2.624 2.226 3.317 3.563.779 1.529 1.636 5.276 4.231 18.237l1.821 9.102 1.127 1.074c2.141 2.115 6.24 3.079 12.989 3.079 6.773 0 10.816-.939 12.96-3.054l1.152-1.095 1.657-8.437c3.666-18.45 3.989-19.467 6.855-21.742.882-.725 1.742-1.607 1.899-2.009.189-.455.377-3.965.508-9.266.107-4.711.27-9.373.377-10.365l.16-1.792 1.742-1.316c2.194-1.685 3.051-3.211 3.051-5.568-.025-2.784-1.849-5.838-5.166-8.569l-1.582-1.283.779-1.102c3.239-4.469 1.205-10.656-4.821-14.777l-1.82-1.259.668-.697c2.972-3.186 3.456-12.693.963-19.307-1.497-3.936-4.928-8.22-9.131-11.381C70.648 3.429 64.966.002 64.461.002c-.107 0-.107.189-.025.427zm7.708 9.351c1.422 1.394 3.132 3.293 3.805 4.256 3.989 5.571 5.006 12.562 2.596 17.703-.963 2.087-3.858 5.191-6.535 7.04-4.096 2.841-13.309 7.609-19.733 10.229-10.336 4.206-16.338 5.01-17.031 2.251-.27-1.045.508-1.874 3.804-4.071 2.969-2.034 16.306-11.943 16.544-12.345.082-.107-1.284.508-2.997 1.365-5.81 2.947-8.569 2.382-8.434-1.714.078-2.973 2.222-6.347 5.191-8.274.754-.48 3.083-1.554 5.227-2.411 7.04-2.837 9.184-4.285 11.566-7.843 1.422-2.116 2.972-6.027 3.079-7.687.028-.587.135-1.045.213-1.045.082 0 1.287 1.152 2.702 2.546zm7.311 30.421c1.956 1.095 3.989 2.973 4.871 4.444 1.557 2.649.754 5.301-2.596 8.675-3.641 3.698-9.852 7.232-16.683 9.479-6.293 2.062-12.316 3.026-20.942 3.321l-5.355.189 3.484.213c4.498.295 13.198.028 16.573-.508 8.971-1.422 16.605-4.26 22.066-8.167 1.234-.885 2.517-1.607 2.866-1.607.885 0 4.74 3.698 5.518 5.248.427.885.533 1.529.455 2.382-.402 3.563-4.743 5.465-15.211 6.72-12.8 1.529-29.536.028-36.686-3.264-3.378-1.554-3.936-2.439-3.079-4.793.267-.75.32-1.636.213-2.894-.135-1.66-.107-1.874.48-2.489 1.34-1.447 3.591-2.276 11.84-4.366 2.891-.747 6.827-1.927 8.7-2.624 4.551-1.66 13.095-5.973 17.056-8.622 3.723-2.464 4.26-2.571 6.428-1.337zM43.89 72.974c5.625 1.635 10.606 2.115 19.872 1.927 6.962-.132 11.246-.562 17.429-1.66 1.262-.213 2.357-.402 2.493-.402.295 0 .213 10.283-.107 12.989-.349 2.866-1.127 5.088-1.956 5.625-.857.562-5.141 1.152-10.873 1.472-11.755.64-23.833 0-27.581-1.501-2.034-.829-2.251-1.902-2.276-11.837 0-6.613.053-7.523.402-7.388.213.078 1.39.427 2.596.775zm6.346 22.763c1.927.238 4.018.48 4.658.562l1.156.135-1.02 1.124c-1.312 1.419-3.321 4.256-4.043 5.703-.828 1.66-1.099 1.767-2.329 1.099l-1.045-.59-.587-3.641a93.173 93.173 0 0 0-.864-4.868l.114.662c-.242-.693-.483-.693 3.961-.185zm28.548-.295c0 .053-.135.747-.27 1.529-.16.8-.829 5.166-1.497 9.717-1.365 9.508-2.275 13.977-3.108 15.477-1.152 2.009-3.911 3.186-8.38 3.563-1.742.135-6.99-.213-7.285-.484-.213-.238 4.391-5.945 5.117-6.318.668-.377.853-.32 3.129.853 2.653 1.397 3.993 1.611 3.993.725 0-.882-.697-1.742-2.411-2.915-1.579-1.127-2.141-1.771-2.141-2.521 0-.213.775-1.419 1.714-2.677.935-1.259 2.3-3.267 2.997-4.473l1.316-2.169 1.202.163c2.436.349 3.079.32 3.001-.213-.053-.27-.508-1.045-1.02-1.689-.508-.668-.91-1.341-.91-1.472 0-.508 2.489-5.195 3.296-6.187.697-.857 1.259-1.287 1.259-.91zm-16.736 2.14c1.337.885 6.371 5.252 6.692 5.785.135.242-5.031 8.327-6.051 9.479-.107.135-.669-.132-1.23-.562a80.837 80.837 0 0 0-4.319-3.007l-.339-.207-3.616-2.382 2.169-3.669c3.854-6.453 3.776-6.347 4.605-6.347.427 0 1.365.402 2.091.91zm10.147.964c-.939 1.152-1.714 1.877-2.034 1.877-.697 0-1.824-.615-3.723-2.009l-1.582-1.152 3.165-.189a63.75 63.75 0 0 0 3.918-.258l-.256.02c2.144-.349 2.144-.32.512 1.71zM51.95 111.427c2.464.963 6.642 3.239 7.847 4.26.857.693.857.747.508 1.603a26.398 26.398 0 0 1-1.722 2.962l.061-.097a43.734 43.734 0 0 0-1.669 2.729l-.127.243c-.853 1.66-1.123 1.796-2.891 1.316-1.902-.565-2.916-1.529-3.453-3.271-.725-2.436-1.877-9.316-1.742-10.389.053-.402 1.177-.16 3.186.644z"/></symbol></defs></svg>