<svg aria-hidden="true" style="position: absolute; width: 0; height: 0; overflow: hidden;" version="1.1" xmlns="http://www.w3.org/2000/svg" xmlns:xlink="http://www.w3.org/1999/xlink">
<defs>
<symbol id="icon-Logo" viewBox="0 0 118 128">
<path fill="#f8d24e" style="fill: var(--color1, #f8d24e)" d="M60.905 68.329c5.659-15.138-6.059-23.424-13.827-28.87-1.485-1.113-2.97-2.152-4.173-3.103-2.15-1.788-3.734-4.148-4.563-6.797s-0.869-5.478-0.115-8.15c0.077-0.279 0.075-0.575-0.006-0.853s-0.238-0.53-0.454-0.726c-0.216-0.197-0.483-0.331-0.771-0.388s-0.587-0.035-0.863 0.064c-2.616 1.020-5.048 2.449-7.203 4.231-2.071 1.574-3.748 3.594-4.904 5.905s-1.759 4.854-1.764 7.431c-1.465 1.138-2.759 2.474-3.847 3.967-1.997 2.687-2.998 5.969-2.837 9.296-2.379 2.154-4.151 4.879-5.143 7.909s-1.17 6.262-0.516 9.38c-0.946 0.564-1.679 1.418-2.085 2.432s-0.464 2.131-0.163 3.18c0.3 1.049 0.942 1.972 1.825 2.627s1.961 1.006 3.067 0.999h0.104v8.608c0 0.874 0.352 1.712 0.979 2.329s1.477 0.965 2.363 0.965h2.599l4.233 36.16c0.088 0.805 0.475 1.549 1.086 2.090s1.404 0.839 2.226 0.838h17.614c0.822-0.002 1.615-0.301 2.228-0.841s1.004-1.282 1.099-2.087l4.233-36.16h2.599c0.886 0 1.736-0.347 2.363-0.965s0.979-1.456 0.979-2.329v-8.608h0.104c1.343 0 2.631-0.526 3.581-1.462s1.483-2.206 1.483-3.53c0.007-0.661-0.121-1.316-0.376-1.927s-0.632-1.165-1.109-1.63l-0.044 0.015zM22.781 40.865c2.139 7.92 10.396 11.038 17.926 13.82 0.202 0.123 0.43 0.2 0.666 0.227s0.475 0.001 0.701-0.074c0.225-0.075 0.431-0.198 0.602-0.36s0.305-0.36 0.39-0.578c0.085-0.219 0.121-0.453 0.104-0.687s-0.086-0.461-0.202-0.665c-0.116-0.204-0.276-0.381-0.469-0.518s-0.414-0.229-0.648-0.272c-8.109-3.030-15.758-5.856-16.337-13.952-0.136-2.225 0.288-4.449 1.234-6.475s2.384-3.789 4.187-5.135c1.13-0.927 2.343-1.75 3.624-2.459-0.083 1.013-0.083 2.032 0 3.045 0.172 2.32 0.815 4.582 1.892 6.652s2.565 3.905 4.375 5.397c1.233 1.039 2.762 2.108 4.456 3.25 3.906 2.767 8.347 5.856 11.169 10.043 1.506 2.147 2.442 4.632 2.725 7.227s-0.098 5.219-1.106 7.632h-6.564c-13.53 0-29.080-3.689-32.154-14.025-0.61-2.126-0.605-4.378 0.014-6.502s1.828-4.035 3.491-5.517l-0.074-0.073zM34.959 90.772l4.961 4.89-4.961 4.89-4.96-4.919 4.96-4.861zM46.336 103.611l-4.099 4.041-4.961-4.89 4.96-4.875 4.307 4.231-0.208 1.493zM34.959 114.825l-4.96-4.89 4.96-4.89 4.961 4.89-4.961 4.89zM32.687 102.791l-4.96 4.89-4.129-4.070-0.178-1.464 4.307-4.231 4.96 4.875zM25.439 109.935l-0.995 0.981-0.253-2.225 1.248 1.244zM24.919 114.942l2.807-2.767 5.451 5.417c0.028 0.109 0.063 0.217 0.104 0.322h-8.020l-0.341-2.972zM42.207 112.175l2.807 2.767-0.342 2.928h-8.243l5.777-5.695zM45.474 110.916l-0.995-0.981 1.263-1.244-0.267 2.225zM46.959 98.121l-2.48-2.489 3.149-3.104-0.668 5.592zM42.192 93.407l-4.708-4.626h9.416l-4.708 4.626zM27.712 93.407l-4.708-4.626h9.416l-4.708 4.626zM43.752 124.677h-17.599c-0.027-0.003-0.051-0.015-0.070-0.034s-0.031-0.043-0.034-0.069l-0.416-3.513h18.654l-0.401 3.513c-0.004 0.028-0.018 0.055-0.040 0.073s-0.050 0.029-0.079 0.029h-0.015zM57.371 73.672h-5.169c-0.225-0.021-0.451 0.004-0.666 0.074s-0.411 0.183-0.578 0.333c-0.167 0.15-0.3 0.332-0.392 0.535s-0.139 0.423-0.139 0.646c0 0.222 0.047 0.442 0.139 0.646s0.225 0.386 0.392 0.535c0.167 0.15 0.364 0.263 0.578 0.333s0.441 0.096 0.666 0.074h1.841v8.608c-0.004 0.028-0.017 0.055-0.040 0.073s-0.050 0.029-0.079 0.029h-37.976c-0.029 0-0.057-0.010-0.079-0.029s-0.036-0.045-0.040-0.073v-8.608h29.422c0.401-0.038 0.773-0.222 1.043-0.516s0.421-0.676 0.421-1.073-0.15-0.779-0.421-1.073c-0.271-0.294-0.642-0.478-1.043-0.516h-32.674c-0.255 0.023-0.511-0.007-0.754-0.088s-0.465-0.21-0.654-0.38c-0.189-0.17-0.34-0.377-0.443-0.608s-0.156-0.48-0.156-0.732c0-0.252 0.053-0.501 0.156-0.732s0.254-0.438 0.443-0.608c0.189-0.17 0.412-0.299 0.654-0.38s0.499-0.111 0.754-0.088h3.371c0.401-0.038 0.773-0.222 1.043-0.515s0.421-0.676 0.421-1.073-0.15-0.779-0.421-1.073c-0.271-0.294-0.643-0.477-1.043-0.515h-2.97c-0.425-2.228-0.356-4.519 0.203-6.718s1.594-4.252 3.035-6.019c1.040 3.191 3.713 7.554 10.396 11.024 6.282 3.235 14.599 4.89 24.714 4.89h5.941c0.255-0.023 0.511 0.007 0.754 0.088s0.465 0.21 0.654 0.38c0.189 0.17 0.34 0.377 0.443 0.608s0.156 0.48 0.156 0.732c0 0.252-0.053 0.502-0.156 0.732s-0.254 0.438-0.443 0.608c-0.189 0.17-0.412 0.299-0.654 0.38s-0.499 0.111-0.754 0.088h0.104z"></path>
<path fill="#f8d24e" style="fill: var(--color1, #f8d24e)" d="M67.857 116.607l-1.17 1.795 0.023 0.015 1.147-1.81zM80.452 117.214l2.142-0.047-0.055-2.48-2.445 0.415 0.358 2.112zM80.599 123.804l0.545 2.072 1.634-0.43-0.038-1.689-2.142 0.047zM64.070 124.118l0.481-2.088-0.013-0.003-0.468 2.091zM55.91 120.478l1.386-1.634-0.003-0.003-1.383 1.636zM52.96 113.782l2.142 0.011v-0.011h-2.142zM53.985 109.096l-1.922-0.946-0.001 0.003 1.924 0.943zM60.555 103.488l0.76 2.003 0.008-0.003-0.768-2zM81.603 102.945l2.136 0.166 0.141-1.809-1.761-0.437-0.516 2.079zM81.080 109.661l-0.399 2.105 2.35 0.445 0.186-2.384-2.136-0.166zM75.368 106.912c-3.215 0-5.918 0.343-7.892 1.212-1.012 0.445-1.932 1.071-2.603 1.955-0.691 0.912-1.021 1.974-1.021 3.097h4.285c0-0.251 0.061-0.39 0.151-0.509 0.111-0.146 0.362-0.379 0.912-0.621 1.15-0.506 3.134-0.849 6.168-0.849v-4.285zM63.852 113.176c0 2.205 0.988 4.023 2.835 5.226l2.34-3.59c-0.636-0.415-0.889-0.884-0.889-1.636h-4.285zM66.71 118.417c1.751 1.109 4.059 1.525 6.649 1.525v-4.285c-2.236 0-3.596-0.379-4.356-0.86l-2.293 3.62zM73.359 119.942c2.543 0 5.027-0.205 7.451-0.616l-0.717-4.225c-2.178 0.37-4.423 0.555-6.734 0.555v4.285zM78.31 117.261l0.147 6.591 4.284-0.095-0.147-6.591-4.284 0.095zM80.053 121.733c-2.45 0.644-5.151 0.975-8.117 0.975v4.285c3.283 0 6.356-0.367 9.207-1.117l-1.091-4.144zM71.937 122.708c-3.026 0-5.476-0.238-7.386-0.678l-0.962 4.176c2.33 0.536 5.125 0.787 8.348 0.787v-4.285zM64.537 122.028c-2.045-0.457-3.522-0.944-4.507-1.424l-1.88 3.85c1.414 0.69 3.257 1.265 5.452 1.756l0.935-4.182zM60.030 120.603c-1.056-0.516-1.963-1.105-2.734-1.759l-2.772 3.267c1.070 0.908 2.283 1.686 3.626 2.342l1.88-3.85zM57.293 118.841c-1.456-1.23-2.202-2.838-2.19-5.048l-4.285-0.022c-0.017 3.369 1.204 6.225 3.71 8.343l2.766-3.273zM55.102 113.782c0-1.44 0.283-2.675 0.807-3.744l-3.848-1.885c-0.843 1.72-1.244 3.61-1.244 5.629h4.285zM55.907 110.041c0.975-1.982 2.696-3.521 5.407-4.549l-1.52-4.006c-3.537 1.342-6.196 3.542-7.732 6.665l3.845 1.891zM61.323 105.489c2.85-1.094 6.031-1.657 9.568-1.657v-4.285c-3.996 0-7.706 0.637-11.104 1.942l1.536 4zM70.891 103.832c3.606 0 7.003 0.4 10.197 1.192l1.031-4.159c-3.558-0.882-7.302-1.318-11.228-1.318v4.285zM79.467 102.778l-0.523 6.716 4.272 0.333 0.523-6.716-4.272-0.333zM81.479 107.556c-2.229-0.422-4.271-0.644-6.111-0.644v4.285c1.507 0 3.274 0.183 5.313 0.569l0.798-4.21zM102.383 110.979l-0.012 2.142 2.177 0.012-0.023-2.177-2.142 0.023zM101.463 108.196l-1.458 1.57 0.019 0.017 1.439-1.587zM96.127 108.405l1.484 1.546 0.016-0.016-1.5-1.53zM94.83 110.937l-2.114-0.348-0.407 2.476 2.509 0.014 0.012-2.142zM110.585 122.361l1.294 1.707 0.77-0.584 0.072-0.964-2.136-0.16zM105.961 124.076l-0.461-2.093-0.013 0.003 0.473 2.090zM89.892 123.491l-0.731 2.014 0.017 0.006 0.713-2.020zM86.231 121.545l-1.33 1.68 0.013 0.010 0.013 0.010 1.304-1.7zM83.783 118.469l-1.921 0.95 0.004 0.008 1.916-0.958zM86.294 105.476l1.425 1.6 0.001-0.001-1.426-1.599zM105.877 103.154l0.857-1.964-0.020-0.008-0.837 1.972zM110.794 107.673l-1.927 0.937 0.006 0.012 1.921-0.949zM111.631 111.418l2.137 0.155 0.006-0.078v-0.078h-2.142zM111.38 114.87l-0.011 2.142 2.002 0.010 0.145-1.997-2.137-0.156zM94.412 114.787l0.010-2.142-2.795-0.014 0.713 2.703 2.072-0.546zM96.839 117.779l-1.054 1.865 0.009 0.005 1.046-1.87zM109.853 117.046v-2.142h-0.428l-0.395 0.165 0.823 1.978zM110.983 117.046l2.137 0.16 0.172-2.302h-2.309v2.142zM104.526 110.956c-0.016-1.55-0.373-3.212-1.624-4.347l-2.879 3.174c-0.025-0.023 0.024 0.004 0.085 0.19 0.065 0.196 0.127 0.524 0.132 1.029l4.285-0.046zM102.921 106.626c-1.124-1.044-2.6-1.388-4.052-1.388v4.285c0.835 0 1.089 0.2 1.136 0.244l2.916-3.14zM98.868 105.238c-1.596 0-3.079 0.5-4.24 1.637l2.999 3.060c0.234-0.229 0.577-0.413 1.241-0.413v-4.285zM94.644 106.86c-1.055 1.013-1.691 2.287-1.928 3.73l4.228 0.695c0.098-0.594 0.327-1.007 0.667-1.334l-2.967-3.091zM94.818 113.079l7.553 0.042 0.024-4.285-7.553-0.042-0.024 4.285zM109.291 120.653c-0.47 0.356-1.615 0.852-3.79 1.331l0.921 4.185c2.26-0.498 4.198-1.145 5.457-2.101l-2.588-3.415zM105.488 121.987c-2.076 0.47-4.072 0.701-5.992 0.701v4.285c2.265 0 4.579-0.272 6.938-0.806l-0.946-4.179zM99.496 122.687c-2.019 0-3.682-0.095-5.008-0.274l-0.572 4.247c1.575 0.212 3.441 0.312 5.579 0.312v-4.285zM94.488 122.413c-1.301-0.175-2.594-0.488-3.883-0.943l-1.426 4.041c1.557 0.55 3.137 0.934 4.737 1.149l0.572-4.247zM90.623 121.477c-1.253-0.454-2.272-1.005-3.088-1.632l-2.608 3.4c1.22 0.936 2.642 1.682 4.235 2.26l1.461-4.028zM87.561 119.865c-0.736-0.582-1.361-1.352-1.862-2.354l-3.832 1.916c0.754 1.509 1.761 2.789 3.034 3.797l2.66-3.36zM85.704 117.519c-0.451-0.911-0.719-2.085-0.719-3.591h-4.285c0 2.009 0.359 3.863 1.163 5.49l3.841-1.9zM84.984 113.929c0-1.507 0.272-2.838 0.785-4.022l-3.931-1.706c-0.769 1.773-1.139 3.692-1.139 5.728h4.285zM85.769 109.907c0.54-1.245 1.202-2.165 1.949-2.831l-2.85-3.2c-1.289 1.148-2.287 2.613-3.031 4.325l3.931 1.706zM87.72 107.075c2.303-2.053 5.815-3.244 10.877-3.244v-4.285c-5.679 0-10.368 1.334-13.728 4.33l2.852 3.198zM98.596 103.832c2.271 0 4.413 0.433 6.445 1.294l1.674-3.945c-2.572-1.091-5.284-1.635-8.118-1.635v4.285zM105.020 105.117c1.896 0.828 3.121 2 3.847 3.492l3.854-1.873c-1.227-2.525-3.28-4.365-5.987-5.546l-1.714 3.927zM108.873 108.622c0.4 0.81 0.615 1.73 0.615 2.797h4.285c0-1.668-0.343-3.245-1.058-4.694l-3.842 1.897zM109.494 111.263l-0.251 3.452 4.274 0.311 0.251-3.452-4.274-0.311zM111.391 112.728l-16.969-0.084-0.021 4.285 16.968 0.084 0.021-4.285zM92.34 115.333c0.501 1.899 1.726 3.339 3.444 4.311l2.109-3.731c-0.848-0.479-1.241-1.034-1.41-1.673l-4.143 1.093zM95.793 119.649c1.738 0.972 3.911 1.361 6.339 1.361v-4.285c-2.035 0-3.391-0.337-4.248-0.816l-2.091 3.74zM102.132 121.009c2.606 0 5.468-0.704 8.544-1.985l-1.647-3.956c-2.754 1.147-5.040 1.656-6.897 1.656v4.285zM109.853 119.189h1.13v-4.285h-1.13v4.285zM108.846 116.887l-0.398 5.314 4.273 0.32 0.398-5.314-4.273-0.32z"></path>
</symbol>
<symbol id="icon-telegram" viewBox="0 0 176 128">
<path fill="#84a178" style="fill: var(--color2, #84a178)" d="M69.368 84.192l-2.696 35.44c3.864 0 5.536-1.552 7.544-3.408l18.104-16.16 37.52 25.656c6.88 3.576 11.736 1.688 13.592-5.912l24.632-107.728c2.184-9.496-3.68-13.208-10.376-10.88l-144.784 51.736c-9.88 3.584-9.728 8.72-1.672 11.064l37.008 10.736 85.976-50.208c4.048-2.504 7.728-1.12 4.696 1.384l-69.544 58.28z"></path>
</symbol>
<symbol id="icon-weight" viewBox="0 0 103 128">
<path d="M42.489 2.187c-15.901 2.357-28.988 11.186-33.806 22.741-1.536 3.651-1.949 5.895-1.949 10.293 0.029 3.25 0.146 4.455 0.651 6.208 1.031 3.449 1.771 5.205 3.307 7.68l1.422 2.297-1.6 1.956c-12.615 15.698-14.005 37.778-3.485 55.172 3.929 6.528 10.343 12.939 16.605 16.675l1.863 1.091 50.972-0.43 1.209-0.661c4.228-2.386 10.194-7.705 13.532-12.018 4.834-6.278 8.255-13.888 9.651-22.186l0.041-0.296c0.473-2.962 0.473-11.733-0.028-14.521-1.507-8.594-4.729-15.954-9.81-22.482-0.974-1.237-1.742-2.272-1.742-2.357 0-0.057 0.533-0.949 1.152-1.956 1.447-2.3 2.748-5.262 3.456-7.847 0.796-2.877 0.796-10.062 0-12.939-2.837-10.204-11.346-18.716-23.371-23.403-3.371-1.323-9.134-2.731-12.857-3.189-3.456-0.402-11.996-0.32-15.218 0.171zM60.48 6.873c15.78 3.075 27.335 12.736 29.461 24.64 0.473 2.674 0.178 7.218-0.619 9.746-0.8 2.471-2.275 5.376-4.018 7.847-0.711 1.006-1.301 2.158-1.301 2.532s0.619 1.351 1.507 2.329c7.385 8.192 11.285 18.457 11.285 29.554-0.028 12.622-4.875 23.691-14.212 32.373-1.597 1.493-3.872 3.364-5.085 4.167l-2.215 1.493-48.843 0.203-1.892-1.209c-6.855-4.451-13.031-11.811-16.459-19.634-4.313-9.888-4.757-21.362-1.241-31.651 1.863-5.347 4.345-9.717 8.124-14.318 1.54-1.842 2.247-2.933 2.247-3.449 0-0.434-0.768-1.842-1.774-3.307-3.545-5.148-4.992-10.869-4.135-16.274 0.889-5.461 3.367-9.948 7.947-14.404 5.973-5.778 14.304-9.6 24.085-11.040 4.046-0.604 12.999-0.373 17.138 0.402z"></path>
<path d="M43.815 11.932c-12.114 1.984-21.6 8.711-24.701 17.54-0.711 1.984-0.829 2.759-0.829 5.607 0 2.844 0.117 3.62 0.828 5.603 0.441 1.266 1.269 3.022 1.831 3.911 1.536 2.471 2.215 2.56 5.262 0.718 4.376-2.696 9.472-4.758 14.907-5.898l0.311-0.054c3.662-0.747 10.695-1.031 14.684-0.572 6.233 0.718 12.999 2.958 18.407 6.151 1.536 0.889 3.104 1.636 3.484 1.636 2.247 0 5.113-6.468 5.113-11.495 0-11.186-10.695-20.761-25.852-23.147-3.221-0.515-10.347-0.515-13.447 0zM58.443 16.533c5.084 1.091 9.749 3.165 13.269 5.895 4.729 3.651 7.267 8.739 6.852 13.653-0.146 1.956-0.885 4.601-1.326 4.889-0.121 0.057-1.778-0.633-3.666-1.554-3.704-1.814-8.017-3.328-12.525-4.323l-0.389-0.072c-2.748-0.572-3.901-0.661-10.044-0.633-6.059 0-7.328 0.089-9.956 0.633-4.551 0.978-8.099 2.187-12.473 4.256-4.402 2.098-4.167 2.126-4.963-0.462-1.031-3.36-0.384-7.819 1.625-11.182 1.067-1.781 3.989-4.743 6.116-6.208 4.050-2.791 7.595-4.053 15.218-5.436 1.565-0.284 10.254 0.117 12.263 0.547zM53.629 53.618c-0.828 1.038-0.828 2.016 0.029 2.848 0.562 0.547 1.123 0.69 3.164 0.836 4.137 0.299 7.933 1.52 11.26 3.459l-0.124-0.067c2.425 1.437 6.115 4.917 7.772 7.417 2.453 3.591 4.135 8.739 4.135 12.537 0 1.323 0.121 1.725 0.74 2.297 0.946 0.949 2.187 0.949 3.104 0 0.651-0.661 0.675-0.832 0.501-3.648-0.829-13.916-12.736-25.529-26.976-26.311l-2.958-0.171-0.647 0.807z"></path>
</symbol>
<symbol id="icon-arrow" viewBox="0 0 90 128">
<path stroke-linejoin="round" stroke-linecap="round" stroke-miterlimit="4" stroke-width="25.6" d="M12.8 12.8l63.36 51.2-63.36 51.2"></path>
</symbol>
<symbol id="icon-arrow-large" viewBox="0 0 336 128">
<path d="M333.344 68.768c1.45-1.448 2.346-3.449 2.346-5.66s-0.897-4.212-2.346-5.66l-50.912-50.912c-1.448-1.447-3.447-2.342-5.656-2.342-4.419 0-8.002 3.582-8.002 8.002 0 2.211 0.896 4.212 2.346 5.66l45.256 45.248-45.256 45.256c-1.449 1.448-2.346 3.449-2.346 5.66 0 4.419 3.582 8.002 8.002 8.002 2.209 0 4.208-0.895 5.656-2.342l50.912-50.912zM5.816 71.104h321.864v-16h-321.864v16z"></path>
</symbol>
<symbol id="icon-cat" viewBox="0 0 128 128">
<path fill="#84a178" style="fill: var(--color2, #84a178)" d="M64 0c-35.155 0-64 28.845-64 64 0 29.997 21.050 57.248 48.998 64v-21.171c-1.104 0.278-2.371 0.438-3.675 0.438-1.59 0-3.125-0.237-4.571-0.678l0.111 0.029c-3.782-1.114-6.854-3.635-9.139-7.475-1.453-2.451-4.032-5.12-6.72-4.922l-0.659-7.469c5.818-0.499 10.842 3.546 13.824 8.557 1.331 2.234 2.861 3.539 4.819 4.115 1.888 0.563 3.923 0.294 6.291-0.544 0.595-4.742 2.771-6.515 4.416-9.024-16.672-2.483-23.315-11.328-25.952-18.304-3.494-9.274-1.619-20.851 4.557-28.173 0.122-0.141 0.339-0.512 0.256-0.768-2.835-8.563 0.614-15.642 0.742-16.39 3.27 0.96 3.802-0.973 14.208 5.344l1.792 1.082c0.755 0.448 0.512 0.192 1.267 0.128 4.012-1.128 8.629-1.808 13.395-1.875l0.039-0c4.544 0.058 9.088 0.704 13.613 1.933l0.582 0.064c-0.051-0.013 0.16-0.038 0.512-0.25 12.992-7.872 12.525-5.299 16.013-6.432 0.128 0.755 3.526 7.949 0.73 16.397-0.384 1.165 11.264 11.827 4.806 28.941-2.637 6.976-9.28 15.827-25.946 18.31 2.138 3.264 4.704 4.992 4.691 11.712v26.426c27.942-6.752 48.998-34.003 48.998-64 0-35.155-28.845-64-64-64z"></path>
</symbol>
<symbol id="icon-cow" viewBox="0 0 128 128">
<path d="M24.675 0.768c-1.049 0.903-4.032 7.125-5.102 10.524-1.273 4.206-1.707 7.36-1.536 11.719 0.231 6.222 1.796 10.944 5.241 15.872 0.899 1.294 1.625 2.404 1.625 2.496 0 0.060-0.551 0.121-1.244 0.121-2.987 0-8.576 0.992-12.861 2.283-6.802 2.048-10.798 5.621-10.798 9.621 0 1.415 1.273 3.819 2.635 5.049 2.635 2.379 8.398 4.633 14.595 5.714 2.144 0.391 8.515 1.052 9.934 1.081 0.259 0 0.349 1.387 0.349 5.924 0 3.907 0.142 6.944 0.434 8.807 1.042 6.674 4.284 13.735 8.569 18.727l1.479 1.714-0.985 1.593c-1.447 2.254-1.998 3.968-2.169 6.521-0.437 6.133 3.385 11.573 10.773 15.392 14.069 7.303 35.936 4.448 44.132-5.771 3.996-4.992 4.459-10.702 1.301-15.872l-0.985-1.593 1.767-2.133c3.303-3.968 5.444-7.936 7.065-12.957 1.362-4.267 1.885-8.388 1.885-14.912 0-2.972 0.085-5.44 0.231-5.44 1.333-0.028 7.733-0.722 9.76-1.081 6.226-1.081 11.876-3.307 14.596-5.71 1.362-1.234 2.635-3.637 2.635-5.049 0-4.452-4.516-8.057-12.917-10.222-2.749-0.722-7.933-1.593-10.453-1.742l-1.188-0.093 1.305-1.803c1.621-2.194 3.648-6.464 4.43-9.259 2.201-8.085 0.839-17.493-3.879-26.482-1.973-3.73-3.335-4.601-4.924-3.132-0.608 0.576-0.871 1.355-1.447 4.181-1.796 8.989-5.127 16.11-9.991 21.369l-2.144 2.347h-45.813l-1.913-2.073c-4.747-5.23-8.195-12.622-9.991-21.643-0.579-2.827-0.839-3.605-1.447-4.178-0.956-0.871-1.884-0.843-2.951 0.089zM28.377 18.596c1.536 3.364 3.449 6.521 5.703 9.437l1.795 2.315-1.881 1.412c-1.767 1.351-3.417 3.278-4.693 5.476l-0.547 0.989-1.39-1.895c-4.75-6.549-5.938-14.578-3.417-22.905 1.216-4.025 1.188-3.997 2.286-0.508 0.523 1.682 1.508 4.238 2.144 5.682zM103.755 12.252c1.049 2.913 1.655 6.275 1.655 9.778 0 0.124-0.001 0.247-0.002 0.371l0-0.019c0 5.468-1.447 10.098-4.487 14.247l-1.362 1.863-1.013-1.714c-1.313-2.221-3.010-4.075-5.017-5.524l-0.053-0.036c-0.782-0.509-1.387-1.020-1.387-1.081 0-0.089 0.547-0.782 1.245-1.532 3.214-3.577 6.659-10.009 8.37-15.541 0.519-1.714 1.042-3.129 1.127-3.129 0.089 0 0.523 1.056 0.924 2.318zM88.96 34.226c3.214 1.351 6.283 5.227 6.777 8.505 0.26 1.803 0.868 2.947 1.65 3.129 0.349 0.057 2.752 0.267 5.33 0.448 9.148 0.605 16.359 2.556 19.431 5.23 1.419 1.262 1.273 2.315-0.434 3.609-3.417 2.585-10.802 4.537-18.332 4.871-4.981 0.21-6.023 0.355-6.692 1.049-0.491 0.512-0.547 1.053-0.547 6.492 0 7.367-0.377 11.605-1.305 15.029-1.301 4.658-3.879 9.621-6.891 13.138l-1.245 1.444-2.578-1.536c-2.749-1.704-5.941-3.040-9.341-3.833l-0.216-0.043c-10.976-2.617-23.111-1.024-31.275 4.117l-1.885 1.202-1.188-1.412c-1.621-1.895-4.171-5.952-5.184-8.235-2.229-5.173-2.894-9.379-2.894-18.638 0-8.989 0.462-8.327-6.197-8.686-8.515-0.452-15.005-1.984-19.086-4.569-3.011-1.923-2.517-3.637 1.682-5.653 4.025-1.956 9.554-3.125 17.23-3.605 5.966-0.391 6.108-0.483 6.659-3.367 0.811-4.359 4.025-7.965 8.082-9.109 1.013-0.299 6.688-0.359 24.064-0.331l22.734 0.060 1.65 0.693zM72.683 96.448c7.097 1.742 12.395 4.989 14.684 9.017 0.551 0.931 0.782 1.895 0.896 3.367 0.117 1.831 0.032 2.283-0.665 3.787-3.214 6.827-15.029 11.332-27.047 10.311-14.45-1.202-23.95-9.259-20.213-17.163 2.027-4.27 8.889-8.356 16.128-9.561 1.188-0.178 2.375-0.391 2.606-0.451 0.235-0.061 2.841-0.061 5.795 0 4.021 0.093 5.963 0.27 7.815 0.693z"></path>
<path d="M43.961 49.283c-1.795 0.605-3.011 1.387-4.633 3.008-1.422 1.351-1.536 2.944-0.349 3.907 1.102 0.9 2.144 0.782 3.474-0.391 1.682-1.472 2.987-2.073 4.608-2.073 1.621-0.032 2.866 0.541 4.601 2.073 1.333 1.173 2.375 1.291 3.477 0.391 0.58-0.48 0.754-0.871 0.754-1.778 0-0.928-0.203-1.351-1.22-2.371-2.866-2.883-7.122-3.996-10.713-2.766zM77.725 49.252c-1.849 0.693-4.228 2.258-5.18 3.428-0.928 1.145-0.96 2.435 0 3.399 0.953 1.020 2.112 0.96 3.502-0.181 3.417-2.827 5.966-2.916 9.124-0.302 0.811 0.693 1.735 1.234 2.027 1.234 1.419 0 2.578-1.262 2.578-2.766 0-0.96-2.403-3.186-4.576-4.238-2.403-1.173-5.269-1.383-7.47-0.569zM48.16 104.896c-0.839 0.811-1.131 1.984-0.697 2.915 0.32 0.75 0.811 1.052 2.809 1.593 0.9 0.238 1.276 0.54 1.593 1.291 0.405 0.996 0.437 0.996 2.667 1.085l2.229 0.089v-0.843c-0.029-1.202-0.697-2.944-1.565-4.146-1.013-1.387-2.781-2.286-4.779-2.468-1.362-0.121-1.707-0.061-2.258 0.484zM75.815 104.683c-1.447 0.391-3.531 2.347-4.11 3.876-0.289 0.805-0.486 1.738-0.549 2.707l-0.002 0.031c-0.057 1.291 0.057 1.593 0.754 2.222 1.707 1.504 3.968 0.331 3.968-2.073 0-1.173 0.868-1.984 2.403-2.286 1.621-0.299 2.201-0.96 2.229-2.493 0-2.016-1.796-2.795-4.693-1.984z"></path>
</symbol>
<symbol id="icon-facebook" viewBox="0 0 64 128">
<path fill="#84a178" style="fill: var(--color2, #84a178)" d="M56.57 63.884h-16.134v59.462h-24.448v-59.462h-11.625v-20.887h11.625v-13.527c0-9.67 4.567-24.814 24.669-24.814l18.106 0.076v20.288h-13.137c-2.153 0-5.19 1.088-5.19 5.702v12.294h18.269l-2.135 20.876z"></path>
</symbol>
<symbol id="icon-ice-crema" viewBox="0 0 128 128">
<path d="M64.434 0.427c0.32 0.861 0.963 5.010 0.963 6.293 0 0.013 0 0.028 0 0.043 0 3.272-1.273 6.246-3.352 8.454l0.006-0.006c-1.795 1.927-3.591 2.997-7.901 4.739-4.793 1.956-6.777 3.133-9.024 5.355-2.276 2.276-3.616 4.764-4.096 7.687-0.537 3.186 0 5.433 1.632 6.72l0.828 0.64-1.312 0.832c-2.649 1.742-7.467 5.838-8.299 7.097-1.607 2.411-1.447 4.658 0.373 5.572l0.857 0.427-0.964 0.91c-1.447 1.365-1.742 2.304-1.529 4.764 0.135 1.636 0.082 2.521-0.291 3.858-0.455 1.742-0.455 1.767 0.132 3.001 0.59 1.205 2.251 2.731 3.751 3.374 0.722 0.32 0.747 0.427 0.91 2.891 0.082 1.422 0.213 5.945 0.32 10.069 0.082 4.124 0.27 7.9 0.427 8.356 0.135 0.48 0.644 1.124 1.102 1.444 1.55 1.074 2.624 2.226 3.317 3.563 0.779 1.529 1.636 5.276 4.231 18.237l1.821 9.102 1.127 1.074c2.141 2.115 6.24 3.079 12.989 3.079 6.773 0 10.816-0.939 12.96-3.054l1.152-1.095 1.657-8.437c3.666-18.45 3.989-19.467 6.855-21.742 0.882-0.725 1.742-1.607 1.899-2.009 0.189-0.455 0.377-3.965 0.508-9.266 0.107-4.711 0.27-9.373 0.377-10.365l0.16-1.792 1.742-1.316c2.194-1.685 3.051-3.211 3.051-5.568-0.025-2.784-1.849-5.838-5.166-8.569l-1.582-1.283 0.779-1.102c3.239-4.469 1.205-10.656-4.821-14.777l-1.82-1.259 0.668-0.697c2.972-3.186 3.456-12.693 0.963-19.307-1.497-3.936-4.928-8.22-9.131-11.381-2.055-1.554-7.737-4.981-8.242-4.981-0.107 0-0.107 0.189-0.025 0.427zM72.142 9.778c1.422 1.394 3.132 3.293 3.805 4.256 3.989 5.571 5.006 12.562 2.596 17.703-0.963 2.087-3.858 5.191-6.535 7.040-4.096 2.841-13.309 7.609-19.733 10.229-10.336 4.206-16.338 5.010-17.031 2.251-0.27-1.045 0.508-1.874 3.804-4.071 2.969-2.034 16.306-11.943 16.544-12.345 0.082-0.107-1.284 0.508-2.997 1.365-5.81 2.947-8.569 2.382-8.434-1.714 0.078-2.973 2.222-6.347 5.191-8.274 0.754-0.48 3.083-1.554 5.227-2.411 7.040-2.837 9.184-4.285 11.566-7.843 1.422-2.116 2.972-6.027 3.079-7.687 0.028-0.587 0.135-1.045 0.213-1.045 0.082 0 1.287 1.152 2.702 2.546zM79.453 40.199c1.956 1.095 3.989 2.973 4.871 4.444 1.557 2.649 0.754 5.301-2.596 8.675-3.641 3.698-9.852 7.232-16.683 9.479-6.293 2.062-12.316 3.026-20.942 3.321l-5.355 0.189 3.484 0.213c4.498 0.295 13.198 0.028 16.573-0.508 8.971-1.422 16.605-4.26 22.066-8.167 1.234-0.885 2.517-1.607 2.866-1.607 0.885 0 4.74 3.698 5.518 5.248 0.427 0.885 0.533 1.529 0.455 2.382-0.402 3.563-4.743 5.465-15.211 6.72-12.8 1.529-29.536 0.028-36.686-3.264-3.378-1.554-3.936-2.439-3.079-4.793 0.267-0.75 0.32-1.636 0.213-2.894-0.135-1.66-0.107-1.874 0.48-2.489 1.34-1.447 3.591-2.276 11.84-4.366 2.891-0.747 6.827-1.927 8.7-2.624 4.551-1.66 13.095-5.973 17.056-8.622 3.723-2.464 4.26-2.571 6.428-1.337zM43.89 72.974c5.625 1.635 10.606 2.115 19.872 1.927 6.962-0.132 11.246-0.562 17.429-1.66 1.262-0.213 2.357-0.402 2.493-0.402 0.295 0 0.213 10.283-0.107 12.989-0.349 2.866-1.127 5.088-1.956 5.625-0.857 0.562-5.141 1.152-10.873 1.472-11.755 0.64-23.833 0-27.581-1.501-2.034-0.829-2.251-1.902-2.276-11.837 0-6.613 0.053-7.523 0.402-7.388 0.213 0.078 1.39 0.427 2.596 0.775zM50.236 95.737c1.927 0.238 4.018 0.48 4.658 0.562l1.156 0.135-1.020 1.124c-1.312 1.419-3.321 4.256-4.043 5.703-0.828 1.66-1.099 1.767-2.329 1.099l-1.045-0.59-0.587-3.641c-0.311-2.025-0.573-3.452-0.864-4.868l0.114 0.662c-0.242-0.693-0.483-0.693 3.961-0.185zM78.784 95.442c0 0.053-0.135 0.747-0.27 1.529-0.16 0.8-0.829 5.166-1.497 9.717-1.365 9.508-2.275 13.977-3.108 15.477-1.152 2.009-3.911 3.186-8.38 3.563-1.742 0.135-6.99-0.213-7.285-0.484-0.213-0.238 4.391-5.945 5.117-6.318 0.668-0.377 0.853-0.32 3.129 0.853 2.653 1.397 3.993 1.611 3.993 0.725 0-0.882-0.697-1.742-2.411-2.915-1.579-1.127-2.141-1.771-2.141-2.521 0-0.213 0.775-1.419 1.714-2.677 0.935-1.259 2.3-3.267 2.997-4.473l1.316-2.169 1.202 0.163c2.436 0.349 3.079 0.32 3.001-0.213-0.053-0.27-0.508-1.045-1.020-1.689-0.508-0.668-0.91-1.341-0.91-1.472 0-0.508 2.489-5.195 3.296-6.187 0.697-0.857 1.259-1.287 1.259-0.91zM62.048 97.582c1.337 0.885 6.371 5.252 6.692 5.785 0.135 0.242-5.031 8.327-6.051 9.479-0.107 0.135-0.669-0.132-1.23-0.562-1.249-0.938-2.767-1.997-4.319-3.007l-0.339-0.207-3.616-2.382 2.169-3.669c3.854-6.453 3.776-6.347 4.605-6.347 0.427 0 1.365 0.402 2.091 0.91zM72.195 98.546c-0.939 1.152-1.714 1.877-2.034 1.877-0.697 0-1.824-0.615-3.723-2.009l-1.582-1.152 3.165-0.189c1.391-0.050 2.66-0.136 3.918-0.258l-0.256 0.020c2.144-0.349 2.144-0.32 0.512 1.71zM51.95 111.427c2.464 0.963 6.642 3.239 7.847 4.26 0.857 0.693 0.857 0.747 0.508 1.603-0.565 1.125-1.117 2.063-1.722 2.962l0.061-0.097c-0.514 0.766-1.108 1.737-1.669 2.729l-0.127 0.243c-0.853 1.66-1.123 1.796-2.891 1.316-1.902-0.565-2.916-1.529-3.453-3.271-0.725-2.436-1.877-9.316-1.742-10.389 0.053-0.402 1.177-0.16 3.186 0.644z"></path>
</symbol>
</defs>
</svg>
